<svg xmlns="http://www.w3.org/2000/svg" width="1200" height="800" viewBox="0 0 1200 800" fill="none" role="img">
<defs>
  <linearGradient id="outside" x1="0" y1="0" x2=".4" y2="1">
    <stop offset="0" stop-color="#63707C"/><stop offset=".45" stop-color="#2A333C"/><stop offset="1" stop-color="#101519"/>
  </linearGradient>
  <linearGradient id="film" x1="0" y1="0" x2="0" y2="1">
    <stop offset="0" stop-color="#05070A" stop-opacity=".92"/><stop offset="1" stop-color="#05070A" stop-opacity=".72"/>
  </linearGradient>
  <linearGradient id="ref" x1="0" y1="0" x2="1" y2="1">
    <stop offset=".1" stop-color="#ffffff" stop-opacity="0"/>
    <stop offset=".34" stop-color="#ffffff" stop-opacity=".2"/>
    <stop offset=".4" stop-color="#ffffff" stop-opacity="0"/>
    <stop offset=".62" stop-color="#8FC1EA" stop-opacity=".14"/>
    <stop offset=".7" stop-color="#ffffff" stop-opacity="0"/>
  </linearGradient>
  <radialGradient id="vig" cx="50%" cy="45%" r="72%">
    <stop offset=".5" stop-color="#000000" stop-opacity="0"/><stop offset="1" stop-color="#000000" stop-opacity=".6"/>
  </radialGradient>
  <filter id="g-f" x="0" y="0" width="100%" height="100%">
    <feTurbulence type="fractalNoise" baseFrequency="1" numOctaves="3" stitchTiles="stitch"/>
    <feColorMatrix type="saturate" values="0"/>
  </filter>
  <pattern id="g" width="220" height="220" patternUnits="userSpaceOnUse">
    <rect width="220" height="220" filter="url(#g-f)" opacity="0.04"/>
  </pattern>
</defs>
<rect width="1200" height="800" fill="url(#outside)"/>
<g opacity=".5">
  <rect x="70" y="330" width="190" height="300" fill="#0B0F13"/>
  <rect x="330" y="250" width="150" height="380" fill="#0E1317"/>
  <rect x="560" y="300" width="220" height="330" fill="#0A0E12"/>
  <rect x="850" y="220" width="170" height="410" fill="#0D1216"/>
</g>
<path d="M 120 120 L 1080 120 L 1140 700 L 60 700 Z" fill="url(#film)"/>
<path d="M 120 120 L 1080 120 L 1140 700 L 60 700 Z" fill="url(#ref)"/>
<path d="M 120 120 L 1080 120 L 1140 700 L 60 700 Z" stroke="#ffffff" stroke-opacity=".22" stroke-width="2" fill="none"/>
<path d="M 128 138 L 1068 138" stroke="#8FC1EA" stroke-opacity=".35" stroke-width="3"/>
<rect x="0" y="0" width="1200" height="800" fill="url(#g)" style="mix-blend-mode:overlay"/>
<rect width="1200" height="800" fill="url(#vig)"/>
</svg>
